<mxfile host="app.diagrams.net" modified="2021-01-24T12:34:07.093Z" agent="5.0 (Windows NT 10.0; Win64; x64) AppleWebKit/537.36 (KHTML, like Gecko) Chrome/86.0.4240.198 Safari/537.36" etag="nUI23FE5f6-PsNcOhA0r" version="14.2.7" type="github">
  <diagram id="C5RBs43oDa-KdzZeNtuy" name="Page-1">
    <mxGraphModel dx="1415" dy="792" grid="1" gridSize="10" guides="1" tooltips="1" connect="1" arrows="1" fold="1" page="1" pageScale="1" pageWidth="827" pageHeight="1169" math="0" shadow="0">
      <root>
        <mxCell id="WIyWlLk6GJQsqaUBKTNV-0" />
        <mxCell id="WIyWlLk6GJQsqaUBKTNV-1" parent="WIyWlLk6GJQsqaUBKTNV-0" />
        <mxCell id="KHlNVOgaYIOs-eKfc0r4-22" style="edgeStyle=orthogonalEdgeStyle;rounded=0;orthogonalLoop=1;jettySize=auto;html=1;entryX=0.5;entryY=0;entryDx=0;entryDy=0;" edge="1" parent="WIyWlLk6GJQsqaUBKTNV-1" source="KHlNVOgaYIOs-eKfc0r4-0" target="KHlNVOgaYIOs-eKfc0r4-17">
          <mxGeometry relative="1" as="geometry" />
        </mxCell>
        <mxCell id="KHlNVOgaYIOs-eKfc0r4-0" value="setup()" style="rounded=1;whiteSpace=wrap;html=1;" vertex="1" parent="WIyWlLk6GJQsqaUBKTNV-1">
          <mxGeometry x="304" y="80" width="120" height="50" as="geometry" />
        </mxCell>
        <mxCell id="KHlNVOgaYIOs-eKfc0r4-12" style="edgeStyle=orthogonalEdgeStyle;rounded=0;orthogonalLoop=1;jettySize=auto;html=1;exitX=0.5;exitY=1;exitDx=0;exitDy=0;" edge="1" parent="WIyWlLk6GJQsqaUBKTNV-1" source="KHlNVOgaYIOs-eKfc0r4-1">
          <mxGeometry relative="1" as="geometry">
            <mxPoint x="360" y="620" as="targetPoint" />
          </mxGeometry>
        </mxCell>
        <mxCell id="KHlNVOgaYIOs-eKfc0r4-1" value="update()&lt;br&gt;each player" style="rounded=1;whiteSpace=wrap;html=1;" vertex="1" parent="WIyWlLk6GJQsqaUBKTNV-1">
          <mxGeometry x="300" y="525" width="120" height="60" as="geometry" />
        </mxCell>
        <mxCell id="KHlNVOgaYIOs-eKfc0r4-4" value="yes" style="edgeStyle=orthogonalEdgeStyle;rounded=0;orthogonalLoop=1;jettySize=auto;html=1;exitX=0.5;exitY=1;exitDx=0;exitDy=0;entryX=0.5;entryY=0;entryDx=0;entryDy=0;" edge="1" parent="WIyWlLk6GJQsqaUBKTNV-1" source="KHlNVOgaYIOs-eKfc0r4-6" target="KHlNVOgaYIOs-eKfc0r4-1">
          <mxGeometry relative="1" as="geometry" />
        </mxCell>
        <mxCell id="KHlNVOgaYIOs-eKfc0r4-23" value="no" style="edgeStyle=orthogonalEdgeStyle;rounded=0;orthogonalLoop=1;jettySize=auto;html=1;entryX=0;entryY=0.5;entryDx=0;entryDy=0;" edge="1" parent="WIyWlLk6GJQsqaUBKTNV-1" source="KHlNVOgaYIOs-eKfc0r4-2" target="KHlNVOgaYIOs-eKfc0r4-17">
          <mxGeometry relative="1" as="geometry">
            <Array as="points">
              <mxPoint x="284" y="305" />
              <mxPoint x="284" y="200" />
            </Array>
          </mxGeometry>
        </mxCell>
        <mxCell id="KHlNVOgaYIOs-eKfc0r4-2" value="game running?" style="rhombus;whiteSpace=wrap;html=1;" vertex="1" parent="WIyWlLk6GJQsqaUBKTNV-1">
          <mxGeometry x="314" y="260" width="100" height="90" as="geometry" />
        </mxCell>
        <mxCell id="KHlNVOgaYIOs-eKfc0r4-10" value="no" style="edgeStyle=orthogonalEdgeStyle;rounded=0;orthogonalLoop=1;jettySize=auto;html=1;exitX=1;exitY=0.5;exitDx=0;exitDy=0;entryX=0;entryY=0.5;entryDx=0;entryDy=0;" edge="1" parent="WIyWlLk6GJQsqaUBKTNV-1" source="KHlNVOgaYIOs-eKfc0r4-6" target="KHlNVOgaYIOs-eKfc0r4-9">
          <mxGeometry relative="1" as="geometry" />
        </mxCell>
        <mxCell id="KHlNVOgaYIOs-eKfc0r4-6" value="game init&lt;br&gt;done?" style="rhombus;whiteSpace=wrap;html=1;" vertex="1" parent="WIyWlLk6GJQsqaUBKTNV-1">
          <mxGeometry x="320" y="400" width="80" height="80" as="geometry" />
        </mxCell>
        <mxCell id="KHlNVOgaYIOs-eKfc0r4-7" value="yes" style="edgeStyle=orthogonalEdgeStyle;rounded=0;orthogonalLoop=1;jettySize=auto;html=1;exitX=0.5;exitY=1;exitDx=0;exitDy=0;entryX=0.5;entryY=0;entryDx=0;entryDy=0;" edge="1" parent="WIyWlLk6GJQsqaUBKTNV-1" source="KHlNVOgaYIOs-eKfc0r4-2" target="KHlNVOgaYIOs-eKfc0r4-6">
          <mxGeometry relative="1" as="geometry">
            <mxPoint x="364" y="350" as="sourcePoint" />
            <mxPoint x="350" y="585" as="targetPoint" />
          </mxGeometry>
        </mxCell>
        <mxCell id="KHlNVOgaYIOs-eKfc0r4-11" style="edgeStyle=orthogonalEdgeStyle;rounded=0;orthogonalLoop=1;jettySize=auto;html=1;exitX=0.5;exitY=1;exitDx=0;exitDy=0;entryX=1;entryY=0.5;entryDx=0;entryDy=0;" edge="1" parent="WIyWlLk6GJQsqaUBKTNV-1" source="KHlNVOgaYIOs-eKfc0r4-9" target="KHlNVOgaYIOs-eKfc0r4-1">
          <mxGeometry relative="1" as="geometry" />
        </mxCell>
        <mxCell id="KHlNVOgaYIOs-eKfc0r4-9" value="initialize()&lt;br&gt;&lt;br&gt;each player" style="rounded=1;whiteSpace=wrap;html=1;" vertex="1" parent="WIyWlLk6GJQsqaUBKTNV-1">
          <mxGeometry x="450" y="410" width="120" height="60" as="geometry" />
        </mxCell>
        <mxCell id="KHlNVOgaYIOs-eKfc0r4-15" style="edgeStyle=orthogonalEdgeStyle;rounded=0;orthogonalLoop=1;jettySize=auto;html=1;exitX=0.5;exitY=1;exitDx=0;exitDy=0;entryX=0.5;entryY=0;entryDx=0;entryDy=0;" edge="1" parent="WIyWlLk6GJQsqaUBKTNV-1" source="KHlNVOgaYIOs-eKfc0r4-13" target="KHlNVOgaYIOs-eKfc0r4-14">
          <mxGeometry relative="1" as="geometry" />
        </mxCell>
        <mxCell id="KHlNVOgaYIOs-eKfc0r4-13" value="draw()&lt;br&gt;each player" style="rounded=1;whiteSpace=wrap;html=1;" vertex="1" parent="WIyWlLk6GJQsqaUBKTNV-1">
          <mxGeometry x="300" y="620" width="120" height="60" as="geometry" />
        </mxCell>
        <mxCell id="KHlNVOgaYIOs-eKfc0r4-16" style="edgeStyle=orthogonalEdgeStyle;rounded=0;orthogonalLoop=1;jettySize=auto;html=1;exitX=1;exitY=0.5;exitDx=0;exitDy=0;entryX=1;entryY=0.5;entryDx=0;entryDy=0;" edge="1" parent="WIyWlLk6GJQsqaUBKTNV-1" source="KHlNVOgaYIOs-eKfc0r4-14" target="KHlNVOgaYIOs-eKfc0r4-2">
          <mxGeometry relative="1" as="geometry">
            <Array as="points">
              <mxPoint x="620" y="740" />
              <mxPoint x="620" y="305" />
            </Array>
          </mxGeometry>
        </mxCell>
        <mxCell id="KHlNVOgaYIOs-eKfc0r4-14" value="updateScreen()&lt;br&gt;&lt;br&gt;each player" style="rounded=1;whiteSpace=wrap;html=1;" vertex="1" parent="WIyWlLk6GJQsqaUBKTNV-1">
          <mxGeometry x="300" y="710" width="120" height="60" as="geometry" />
        </mxCell>
        <mxCell id="KHlNVOgaYIOs-eKfc0r4-21" style="edgeStyle=orthogonalEdgeStyle;rounded=0;orthogonalLoop=1;jettySize=auto;html=1;exitX=0.5;exitY=1;exitDx=0;exitDy=0;entryX=0.5;entryY=0;entryDx=0;entryDy=0;" edge="1" parent="WIyWlLk6GJQsqaUBKTNV-1" source="KHlNVOgaYIOs-eKfc0r4-17" target="KHlNVOgaYIOs-eKfc0r4-2">
          <mxGeometry relative="1" as="geometry" />
        </mxCell>
        <mxCell id="KHlNVOgaYIOs-eKfc0r4-17" value="updateMenu()" style="rounded=1;whiteSpace=wrap;html=1;" vertex="1" parent="WIyWlLk6GJQsqaUBKTNV-1">
          <mxGeometry x="304" y="170" width="120" height="60" as="geometry" />
        </mxCell>
        <mxCell id="KHlNVOgaYIOs-eKfc0r4-25" value="" style="strokeWidth=2;html=1;shape=mxgraph.flowchart.annotation_2;align=left;labelPosition=right;pointerEvents=1;direction=east;" vertex="1" parent="WIyWlLk6GJQsqaUBKTNV-1">
          <mxGeometry x="210" y="300" width="50" height="480" as="geometry" />
        </mxCell>
        <mxCell id="KHlNVOgaYIOs-eKfc0r4-36" style="edgeStyle=orthogonalEdgeStyle;rounded=0;orthogonalLoop=1;jettySize=auto;html=1;exitX=0.78;exitY=0.5;exitDx=0;exitDy=0;exitPerimeter=0;entryX=0;entryY=0.5;entryDx=0;entryDy=0;entryPerimeter=0;" edge="1" parent="WIyWlLk6GJQsqaUBKTNV-1" source="KHlNVOgaYIOs-eKfc0r4-35" target="KHlNVOgaYIOs-eKfc0r4-25">
          <mxGeometry relative="1" as="geometry" />
        </mxCell>
        <mxCell id="KHlNVOgaYIOs-eKfc0r4-35" value="alle&amp;nbsp;&lt;br&gt;32ms&lt;br&gt;&lt;br&gt;oder auch&lt;br&gt;~30fps" style="strokeWidth=2;html=1;shape=mxgraph.flowchart.extract_or_measurement;whiteSpace=wrap;" vertex="1" parent="WIyWlLk6GJQsqaUBKTNV-1">
          <mxGeometry x="115" y="510" width="95" height="110" as="geometry" />
        </mxCell>
        <mxCell id="KHlNVOgaYIOs-eKfc0r4-37" style="edgeStyle=orthogonalEdgeStyle;rounded=0;orthogonalLoop=1;jettySize=auto;html=1;exitX=0.5;exitY=1;exitDx=0;exitDy=0;exitPerimeter=0;" edge="1" parent="WIyWlLk6GJQsqaUBKTNV-1" source="KHlNVOgaYIOs-eKfc0r4-35" target="KHlNVOgaYIOs-eKfc0r4-35">
          <mxGeometry relative="1" as="geometry" />
        </mxCell>
      </root>
    </mxGraphModel>
  </diagram>
</mxfile>
